<?xml version="1.0" encoding="UTF-8" standalone="no"?>
<!DOCTYPE svg PUBLIC "-//W3C//DTD SVG 1.1//EN" "http://www.w3.org/Graphics/SVG/1.1/DTD/svg11.dtd">
<svg xmlns="http://www.w3.org/2000/svg" version="1.1" viewBox="0.00 0.00 475.00 475.00">
<g stroke-width="2.00" fill="none" stroke-linecap="butt">
<path stroke="#97bcae" vector-effect="non-scaling-stroke" d="
  M 372.31 84.06
  Q 353.33 96.49 337.30 113.78
  Q 319.16 133.34 309.89 151.08
  Q 309.54 151.75 309.19 152.42
  Q 305.62 159.25 302.22 166.97
  A 0.65 0.64 -67.5 0 1 301.39 167.32
  Q 283.51 160.08 261.90 156.54
  Q 251.72 154.87 242.05 154.57
  Q 224.00 154.02 212.47 155.24
  Q 186.23 158.02 160.72 168.46
  A 0.62 0.62 0.0 0 1 159.93 168.15
  C 144.14 133.54 117.17 104.71 84.58 85.40"
/>
<path stroke="#97bcae" vector-effect="non-scaling-stroke" d="
  M 385.20 89.75
  Q 357.82 105.86 338.65 129.40
  Q 328.84 141.45 319.55 157.42
  Q 317.61 160.75 316.02 164.38
  Q 314.41 168.04 312.60 171.80
  A 0.40 0.40 0.0 0 0 312.79 172.33
  Q 361.39 195.81 390.91 242.35"
/>
<path stroke="#97bcae" vector-effect="non-scaling-stroke" d="
  M 390.59 265.99
  Q 363.42 210.80 308.79 183.32
  A 0.46 0.45 -67.2 0 0 308.16 183.58
  Q 302.80 198.88 300.46 214.19
  A 1.03 1.03 0.0 0 0 301.10 215.30
  Q 321.63 223.44 339.34 236.38
  Q 371.22 259.69 391.15 293.80"
/>
<path stroke="#97bcae" vector-effect="non-scaling-stroke" d="
  M 390.97 319.71
  Q 389.15 315.13 386.61 310.88
  Q 386.00 309.87 385.53 308.21
  Q 385.10 306.68 384.35 305.29
  C 365.65 270.74 335.79 242.74 299.29 227.20
  Q 298.96 227.06 298.93 227.43
  Q 296.09 269.09 311.63 307.18
  A 1.63 1.60 -6.3 0 0 312.89 308.17
  Q 319.26 309.12 324.52 313.46
  A 0.81 0.81 0.0 0 1 324.64 314.58
  L 321.09 319.13
  Q 320.68 319.66 320.18 319.21
  Q 312.99 312.80 304.52 316.39
  C 290.74 322.21 291.05 350.45 307.10 353.77
  Q 314.95 355.39 322.08 349.23
  Q 322.27 349.06 322.41 349.28
  L 325.78 354.48
  A 0.35 0.34 -36.9 0 1 325.71 354.93
  Q 318.28 361.38 309.43 361.13
  Q 291.98 360.63 287.04 343.74
  Q 284.21 334.07 287.42 324.71
  Q 292.77 309.10 310.01 307.97
  A 0.36 0.36 0.0 0 0 310.23 307.34
  Q 303.40 301.10 296.43 294.87
  C 294.52 293.16 293.97 291.01 293.37 288.63
  Q 285.18 256.34 287.92 223.05
  Q 287.97 222.48 287.42 222.30
  Q 231.97 203.91 176.23 221.28
  A 0.93 0.93 0.0 0 0 175.58 222.29
  Q 180.43 258.33 171.28 293.42
  C 170.99 294.51 170.48 295.05 169.76 295.83
  Q 163.63 302.44 154.32 311.44
  Q 153.54 312.19 153.63 313.27
  L 153.83 315.82
  Q 153.93 317.12 154.79 316.15
  C 160.15 310.15 166.97 306.39 175.22 308.73
  Q 181.20 310.42 183.47 316.71
  A 0.75 0.75 0.0 0 0 184.73 316.96
  C 189.83 311.35 195.98 306.93 203.97 308.30
  C 213.31 309.89 216.09 318.34 216.15 326.72
  Q 216.28 343.83 216.19 359.53
  Q 216.19 359.99 215.73 359.99
  L 208.03 360.02
  Q 207.65 360.02 207.65 359.64
  Q 207.57 345.64 207.64 329.99
  C 207.68 322.07 205.65 312.92 195.21 315.98
  Q 190.54 317.35 185.78 322.85
  Q 185.37 323.32 185.37 323.93
  L 185.37 359.58
  Q 185.37 360.02 184.92 360.02
  L 177.11 359.99
  Q 176.81 359.99 176.82 359.70
  Q 177.00 341.43 176.84 327.77
  C 176.76 320.54 173.86 313.57 164.96 315.86
  C 162.77 316.42 154.66 320.78 154.66 324.43
  Q 154.69 342.90 154.67 359.76
  Q 154.67 360.00 154.43 360.00
  L 146.49 360.01
  Q 146.14 360.01 146.14 359.66
  L 146.11 309.96
  A 0.69 0.68 -90.0 0 1 146.79 309.27
  L 152.05 309.25
  Q 152.67 309.25 152.95 309.80
  L 153.10 310.08
  Q 153.56 310.94 153.90 310.03
  Q 169.33 269.34 164.28 226.23
  Q 164.21 225.61 163.63 225.85
  C 134.49 237.97 110.74 256.65 91.37 281.09
  Q 90.24 282.51 87.87 286.10
  Q 86.52 288.16 84.38 291.13
  Q 79.65 297.67 71.85 312.43"
/>
<path stroke="#97bcae" vector-effect="non-scaling-stroke" d="
  M 71.83 289.50
  Q 75.01 284.35 78.40 279.14
  Q 81.93 273.74 85.52 269.70
  Q 91.45 263.03 97.02 256.85
  Q 98.49 255.21 100.32 253.77
  Q 102.13 252.34 103.63 250.91
  Q 111.51 243.39 120.09 237.18
  Q 139.63 223.03 161.91 214.15
  A 0.72 0.71 -16.4 0 0 162.36 213.34
  Q 159.55 198.93 154.33 184.73
  A 0.55 0.55 0.0 0 0 153.57 184.43
  Q 123.17 199.85 100.98 225.32
  Q 94.57 232.67 88.68 241.37
  Q 82.95 249.82 78.05 258.28
  Q 74.57 264.26 71.83 270.76"
/>
<path stroke="#97bcae" vector-effect="non-scaling-stroke" d="
  M 71.76 245.94
  Q 100.10 198.91 149.14 173.74
  A 0.61 0.61 0.0 0 0 149.41 172.93
  Q 124.92 121.30 74.85 93.11"
/>
<path stroke="#97bcae" vector-effect="non-scaling-stroke" d="
  M 290.94 203.39
  Q 293.29 191.27 297.60 178.82
  A 0.42 0.42 0.0 0 0 297.36 178.29
  Q 267.81 166.24 235.15 165.85
  Q 223.07 165.71 213.50 166.74
  Q 189.83 169.29 165.00 179.19
  Q 164.71 179.31 164.82 179.61
  Q 170.48 194.69 173.49 209.39
  Q 173.62 210.00 174.22 209.81
  Q 197.12 202.65 218.73 201.62
  Q 231.09 201.04 242.25 201.63
  Q 265.69 202.88 288.94 210.61
  Q 289.52 210.81 289.64 210.20
  Q 290.34 206.54 290.94 203.39"
/>
<path stroke="#82a76a" vector-effect="non-scaling-stroke" d="
  M 103.89 335.26
  Q 103.08 336.54 103.08 335.02
  L 103.02 285.89
  A 0.25 0.25 0.0 0 0 102.77 285.64
  L 94.81 285.57
  A 0.24 0.23 -88.9 0 0 94.57 285.81
  L 94.52 359.78
  Q 94.52 360.04 94.78 360.04
  L 102.96 359.95
  Q 103.16 359.95 103.15 359.75
  Q 102.79 353.29 103.18 347.24
  Q 103.21 346.70 103.56 346.30
  L 112.08 336.21
  Q 112.49 335.73 112.85 336.25
  Q 115.32 339.74 117.55 343.90
  Q 121.88 351.95 126.76 359.38
  Q 127.18 360.01 127.93 360.01
  L 136.00 360.00
  Q 136.85 360.00 136.35 359.32
  Q 134.60 356.89 133.10 354.39
  Q 131.54 351.79 129.89 349.45
  Q 126.95 345.30 124.68 341.04
  Q 122.10 336.18 118.09 330.39
  A 0.97 0.97 0.0 0 1 118.14 329.23
  L 127.80 317.33
  A 0.62 0.60 75.2 0 0 127.93 317.10
  Q 128.29 315.90 129.08 315.08
  Q 131.62 312.44 134.02 309.99
  A 0.52 0.52 0.0 0 0 133.65 309.11
  L 125.06 309.10
  A 0.84 0.84 0.0 0 0 124.38 309.42
  Q 119.91 315.00 115.86 320.19
  Q 113.02 323.83 109.55 327.75
  Q 106.28 331.45 103.89 335.26"
/>
<path stroke="#97bcae" vector-effect="non-scaling-stroke" d="
  M 252.5400 361.3800
  A 26.75 23.74 90.0 0 0 276.2800 334.6300
  A 26.75 23.74 90.0 0 0 252.5400 307.8800
  A 26.75 23.74 90.0 0 0 228.8000 334.6300
  A 26.75 23.74 90.0 0 0 252.5400 361.3800"
/>
<path stroke="#97bcae" vector-effect="non-scaling-stroke" d="
  M 353.59 351.09
  Q 346.68 330.44 338.52 309.42
  Q 338.46 309.28 338.31 309.28
  L 329.96 309.36
  Q 329.72 309.36 329.81 309.59
  Q 339.73 334.47 349.60 358.83
  Q 350.14 360.17 349.70 361.68
  C 347.52 369.19 343.49 376.75 334.14 374.30
  A 0.53 0.53 0.0 0 0 333.49 374.69
  L 332.03 380.31
  Q 331.87 380.91 332.46 381.08
  Q 340.06 383.34 346.27 379.65
  C 350.39 377.19 353.90 371.90 355.42 367.70
  Q 366.08 338.30 375.79 309.47
  A 0.17 0.16 8.9 0 0 375.63 309.26
  L 367.82 309.35
  Q 367.62 309.35 367.57 309.53
  L 354.29 351.08
  Q 353.94 352.16 353.59 351.09"
/>
<path stroke="#97bcae" vector-effect="non-scaling-stroke" d="
  M 252.5700 354.3600
  A 19.74 14.89 90.0 0 0 267.4600 334.6200
  A 19.74 14.89 90.0 0 0 252.5700 314.8800
  A 19.74 14.89 90.0 0 0 237.6800 334.6200
  A 19.74 14.89 90.0 0 0 252.5700 354.3600"
/>
</g>
<path fill="#2e795c" d="
  M 372.31 84.06
  Q 353.33 96.49 337.30 113.78
  Q 319.16 133.34 309.89 151.08
  Q 309.54 151.75 309.19 152.42
  Q 305.62 159.25 302.22 166.97
  A 0.65 0.64 -67.5 0 1 301.39 167.32
  Q 283.51 160.08 261.90 156.54
  Q 251.72 154.87 242.05 154.57
  Q 224.00 154.02 212.47 155.24
  Q 186.23 158.02 160.72 168.46
  A 0.62 0.62 0.0 0 1 159.93 168.15
  C 144.14 133.54 117.17 104.71 84.58 85.40
  Q 86.53 84.08 89.25 84.07
  Q 248.80 83.66 372.31 84.06
  Z"
/>
<path fill="#ffffff" d="
  M 372.31 84.06
  Q 379.22 85.71 385.20 89.75
  Q 357.82 105.86 338.65 129.40
  Q 328.84 141.45 319.55 157.42
  Q 317.61 160.75 316.02 164.38
  Q 314.41 168.04 312.60 171.80
  A 0.40 0.40 0.0 0 0 312.79 172.33
  Q 361.39 195.81 390.91 242.35
  L 390.59 265.99
  Q 363.42 210.80 308.79 183.32
  A 0.46 0.45 -67.2 0 0 308.16 183.58
  Q 302.80 198.88 300.46 214.19
  A 1.03 1.03 0.0 0 0 301.10 215.30
  Q 321.63 223.44 339.34 236.38
  Q 371.22 259.69 391.15 293.80
  L 390.97 319.71
  Q 389.15 315.13 386.61 310.88
  Q 386.00 309.87 385.53 308.21
  Q 385.10 306.68 384.35 305.29
  C 365.65 270.74 335.79 242.74 299.29 227.20
  Q 298.96 227.06 298.93 227.43
  Q 296.09 269.09 311.63 307.18
  A 1.63 1.60 -6.3 0 0 312.89 308.17
  Q 319.26 309.12 324.52 313.46
  A 0.81 0.81 0.0 0 1 324.64 314.58
  L 321.09 319.13
  Q 320.68 319.66 320.18 319.21
  Q 312.99 312.80 304.52 316.39
  C 290.74 322.21 291.05 350.45 307.10 353.77
  Q 314.95 355.39 322.08 349.23
  Q 322.27 349.06 322.41 349.28
  L 325.78 354.48
  A 0.35 0.34 -36.9 0 1 325.71 354.93
  Q 318.28 361.38 309.43 361.13
  Q 291.98 360.63 287.04 343.74
  Q 284.21 334.07 287.42 324.71
  Q 292.77 309.10 310.01 307.97
  A 0.36 0.36 0.0 0 0 310.23 307.34
  Q 303.40 301.10 296.43 294.87
  C 294.52 293.16 293.97 291.01 293.37 288.63
  Q 285.18 256.34 287.92 223.05
  Q 287.97 222.48 287.42 222.30
  Q 231.97 203.91 176.23 221.28
  A 0.93 0.93 0.0 0 0 175.58 222.29
  Q 180.43 258.33 171.28 293.42
  C 170.99 294.51 170.48 295.05 169.76 295.83
  Q 163.63 302.44 154.32 311.44
  Q 153.54 312.19 153.63 313.27
  L 153.83 315.82
  Q 153.93 317.12 154.79 316.15
  C 160.15 310.15 166.97 306.39 175.22 308.73
  Q 181.20 310.42 183.47 316.71
  A 0.75 0.75 0.0 0 0 184.73 316.96
  C 189.83 311.35 195.98 306.93 203.97 308.30
  C 213.31 309.89 216.09 318.34 216.15 326.72
  Q 216.28 343.83 216.19 359.53
  Q 216.19 359.99 215.73 359.99
  L 208.03 360.02
  Q 207.65 360.02 207.65 359.64
  Q 207.57 345.64 207.64 329.99
  C 207.68 322.07 205.65 312.92 195.21 315.98
  Q 190.54 317.35 185.78 322.85
  Q 185.37 323.32 185.37 323.93
  L 185.37 359.58
  Q 185.37 360.02 184.92 360.02
  L 177.11 359.99
  Q 176.81 359.99 176.82 359.70
  Q 177.00 341.43 176.84 327.77
  C 176.76 320.54 173.86 313.57 164.96 315.86
  C 162.77 316.42 154.66 320.78 154.66 324.43
  Q 154.69 342.90 154.67 359.76
  Q 154.67 360.00 154.43 360.00
  L 146.49 360.01
  Q 146.14 360.01 146.14 359.66
  L 146.11 309.96
  A 0.69 0.68 -90.0 0 1 146.79 309.27
  L 152.05 309.25
  Q 152.67 309.25 152.95 309.80
  L 153.10 310.08
  Q 153.56 310.94 153.90 310.03
  Q 169.33 269.34 164.28 226.23
  Q 164.21 225.61 163.63 225.85
  C 134.49 237.97 110.74 256.65 91.37 281.09
  Q 90.24 282.51 87.87 286.10
  Q 86.52 288.16 84.38 291.13
  Q 79.65 297.67 71.85 312.43
  L 71.83 289.50
  Q 75.01 284.35 78.40 279.14
  Q 81.93 273.74 85.52 269.70
  Q 91.45 263.03 97.02 256.85
  Q 98.49 255.21 100.32 253.77
  Q 102.13 252.34 103.63 250.91
  Q 111.51 243.39 120.09 237.18
  Q 139.63 223.03 161.91 214.15
  A 0.72 0.71 -16.4 0 0 162.36 213.34
  Q 159.55 198.93 154.33 184.73
  A 0.55 0.55 0.0 0 0 153.57 184.43
  Q 123.17 199.85 100.98 225.32
  Q 94.57 232.67 88.68 241.37
  Q 82.95 249.82 78.05 258.28
  Q 74.57 264.26 71.83 270.76
  Q 72.58 258.27 71.76 245.94
  Q 100.10 198.91 149.14 173.74
  A 0.61 0.61 0.0 0 0 149.41 172.93
  Q 124.92 121.30 74.85 93.11
  C 76.50 91.52 77.47 89.71 79.22 88.49
  Q 81.73 86.74 84.58 85.40
  C 117.17 104.71 144.14 133.54 159.93 168.15
  A 0.62 0.62 0.0 0 0 160.72 168.46
  Q 186.23 158.02 212.47 155.24
  Q 224.00 154.02 242.05 154.57
  Q 251.72 154.87 261.90 156.54
  Q 283.51 160.08 301.39 167.32
  A 0.65 0.64 -67.5 0 0 302.22 166.97
  Q 305.62 159.25 309.19 152.42
  Q 309.54 151.75 309.89 151.08
  Q 319.16 133.34 337.30 113.78
  Q 353.33 96.49 372.31 84.06
  Z
  M 290.94 203.39
  Q 293.29 191.27 297.60 178.82
  A 0.42 0.42 0.0 0 0 297.36 178.29
  Q 267.81 166.24 235.15 165.85
  Q 223.07 165.71 213.50 166.74
  Q 189.83 169.29 165.00 179.19
  Q 164.71 179.31 164.82 179.61
  Q 170.48 194.69 173.49 209.39
  Q 173.62 210.00 174.22 209.81
  Q 197.12 202.65 218.73 201.62
  Q 231.09 201.04 242.25 201.63
  Q 265.69 202.88 288.94 210.61
  Q 289.52 210.81 289.64 210.20
  Q 290.34 206.54 290.94 203.39
  Z"
/>
<path fill="#2e795c" d="
  M 385.20 89.75
  Q 388.42 92.33 390.03 96.05
  Q 391.18 98.70 391.19 103.63
  Q 391.40 172.63 390.91 242.35
  Q 361.39 195.81 312.79 172.33
  A 0.40 0.40 0.0 0 1 312.60 171.80
  Q 314.41 168.04 316.02 164.38
  Q 317.61 160.75 319.55 157.42
  Q 328.84 141.45 338.65 129.40
  Q 357.82 105.86 385.20 89.75
  Z"
/>
<path fill="#2e795c" d="
  M 74.85 93.11
  Q 124.92 121.30 149.41 172.93
  A 0.61 0.61 0.0 0 1 149.14 173.74
  Q 100.10 198.91 71.76 245.94
  Q 71.60 238.62 71.58 231.25
  Q 71.38 173.00 71.49 114.75
  Q 71.50 107.63 71.86 100.51
  Q 72.10 95.82 74.85 93.11
  Z"
/>
<path fill="#2e795c" d="
  M 290.94 203.39
  Q 290.34 206.54 289.64 210.20
  Q 289.52 210.81 288.94 210.61
  Q 265.69 202.88 242.25 201.63
  Q 231.09 201.04 218.73 201.62
  Q 197.12 202.65 174.22 209.81
  Q 173.62 210.00 173.49 209.39
  Q 170.48 194.69 164.82 179.61
  Q 164.71 179.31 165.00 179.19
  Q 189.83 169.29 213.50 166.74
  Q 223.07 165.71 235.15 165.85
  Q 267.81 166.24 297.36 178.29
  A 0.42 0.42 0.0 0 1 297.60 178.82
  Q 293.29 191.27 290.94 203.39
  Z"
/>
<path fill="#2e795c" d="
  M 390.59 265.99
  Q 391.64 267.49 391.56 269.25
  Q 391.00 281.49 391.15 293.80
  Q 371.22 259.69 339.34 236.38
  Q 321.63 223.44 301.10 215.30
  A 1.03 1.03 0.0 0 1 300.46 214.19
  Q 302.80 198.88 308.16 183.58
  A 0.46 0.45 -67.2 0 1 308.79 183.32
  Q 363.42 210.80 390.59 265.99
  Z"
/>
<path fill="#2e795c" d="
  M 71.83 289.50
  L 71.83 270.76
  Q 74.57 264.26 78.05 258.28
  Q 82.95 249.82 88.68 241.37
  Q 94.57 232.67 100.98 225.32
  Q 123.17 199.85 153.57 184.43
  A 0.55 0.55 0.0 0 1 154.33 184.73
  Q 159.55 198.93 162.36 213.34
  A 0.72 0.71 -16.4 0 1 161.91 214.15
  Q 139.63 223.03 120.09 237.18
  Q 111.51 243.39 103.63 250.91
  Q 102.13 252.34 100.32 253.77
  Q 98.49 255.21 97.02 256.85
  Q 91.45 263.03 85.52 269.70
  Q 81.93 273.74 78.40 279.14
  Q 75.01 284.35 71.83 289.50
  Z"
/>
<path fill="#2e795c" d="
  M 390.97 319.71
  Q 391.24 325.39 391.17 331.07
  C 390.92 349.42 391.11 367.78 391.03 386.24
  C 391.00 394.30 382.39 403.61 374.13 403.29
  C 369.86 403.13 365.52 403.45 361.20 403.45
  Q 226.80 403.47 97.46 403.47
  Q 89.94 403.47 85.26 403.20
  C 82.11 403.02 77.41 397.89 75.38 395.39
  Q 71.51 390.61 71.48 384.50
  Q 71.31 350.88 71.49 317.25
  Q 71.51 314.60 71.85 312.43
  Q 79.65 297.67 84.38 291.13
  Q 86.52 288.16 87.87 286.10
  Q 90.24 282.51 91.37 281.09
  C 110.74 256.65 134.49 237.97 163.63 225.85
  Q 164.21 225.61 164.28 226.23
  Q 169.33 269.34 153.90 310.03
  Q 153.56 310.94 153.10 310.08
  L 152.95 309.80
  Q 152.67 309.25 152.05 309.25
  L 146.79 309.27
  A 0.69 0.68 90.0 0 0 146.11 309.96
  L 146.14 359.66
  Q 146.14 360.01 146.49 360.01
  L 154.43 360.00
  Q 154.67 360.00 154.67 359.76
  Q 154.69 342.90 154.66 324.43
  C 154.66 320.78 162.77 316.42 164.96 315.86
  C 173.86 313.57 176.76 320.54 176.84 327.77
  Q 177.00 341.43 176.82 359.70
  Q 176.81 359.99 177.11 359.99
  L 184.92 360.02
  Q 185.37 360.02 185.37 359.58
  L 185.37 323.93
  Q 185.37 323.32 185.78 322.85
  Q 190.54 317.35 195.21 315.98
  C 205.65 312.92 207.68 322.07 207.64 329.99
  Q 207.57 345.64 207.65 359.64
  Q 207.65 360.02 208.03 360.02
  L 215.73 359.99
  Q 216.19 359.99 216.19 359.53
  Q 216.28 343.83 216.15 326.72
  C 216.09 318.34 213.31 309.89 203.97 308.30
  C 195.98 306.93 189.83 311.35 184.73 316.96
  A 0.75 0.75 0.0 0 1 183.47 316.71
  Q 181.20 310.42 175.22 308.73
  C 166.97 306.39 160.15 310.15 154.79 316.15
  Q 153.93 317.12 153.83 315.82
  L 153.63 313.27
  Q 153.54 312.19 154.32 311.44
  Q 163.63 302.44 169.76 295.83
  C 170.48 295.05 170.99 294.51 171.28 293.42
  Q 180.43 258.33 175.58 222.29
  A 0.93 0.93 0.0 0 1 176.23 221.28
  Q 231.97 203.91 287.42 222.30
  Q 287.97 222.48 287.92 223.05
  Q 285.18 256.34 293.37 288.63
  C 293.97 291.01 294.52 293.16 296.43 294.87
  Q 303.40 301.10 310.23 307.34
  A 0.36 0.36 0.0 0 1 310.01 307.97
  Q 292.77 309.10 287.42 324.71
  Q 284.21 334.07 287.04 343.74
  Q 291.98 360.63 309.43 361.13
  Q 318.28 361.38 325.71 354.93
  A 0.35 0.34 -36.9 0 0 325.78 354.48
  L 322.41 349.28
  Q 322.27 349.06 322.08 349.23
  Q 314.95 355.39 307.10 353.77
  C 291.05 350.45 290.74 322.21 304.52 316.39
  Q 312.99 312.80 320.18 319.21
  Q 320.68 319.66 321.09 319.13
  L 324.64 314.58
  A 0.81 0.81 0.0 0 0 324.52 313.46
  Q 319.26 309.12 312.89 308.17
  A 1.63 1.60 -6.3 0 1 311.63 307.18
  Q 296.09 269.09 298.93 227.43
  Q 298.96 227.06 299.29 227.20
  C 335.79 242.74 365.65 270.74 384.35 305.29
  Q 385.10 306.68 385.53 308.21
  Q 386.00 309.87 386.61 310.88
  Q 389.15 315.13 390.97 319.71
  Z
  M 103.89 335.26
  Q 103.08 336.54 103.08 335.02
  L 103.02 285.89
  A 0.25 0.25 0.0 0 0 102.77 285.64
  L 94.81 285.57
  A 0.24 0.23 -88.9 0 0 94.57 285.81
  L 94.52 359.78
  Q 94.52 360.04 94.78 360.04
  L 102.96 359.95
  Q 103.16 359.95 103.15 359.75
  Q 102.79 353.29 103.18 347.24
  Q 103.21 346.70 103.56 346.30
  L 112.08 336.21
  Q 112.49 335.73 112.85 336.25
  Q 115.32 339.74 117.55 343.90
  Q 121.88 351.95 126.76 359.38
  Q 127.18 360.01 127.93 360.01
  L 136.00 360.00
  Q 136.85 360.00 136.35 359.32
  Q 134.60 356.89 133.10 354.39
  Q 131.54 351.79 129.89 349.45
  Q 126.95 345.30 124.68 341.04
  Q 122.10 336.18 118.09 330.39
  A 0.97 0.97 0.0 0 1 118.14 329.23
  L 127.80 317.33
  A 0.62 0.60 75.2 0 0 127.93 317.10
  Q 128.29 315.90 129.08 315.08
  Q 131.62 312.44 134.02 309.99
  A 0.52 0.52 0.0 0 0 133.65 309.11
  L 125.06 309.10
  A 0.84 0.84 0.0 0 0 124.38 309.42
  Q 119.91 315.00 115.86 320.19
  Q 113.02 323.83 109.55 327.75
  Q 106.28 331.45 103.89 335.26
  Z
  M 252.5400 361.3800
  A 26.75 23.74 90.0 0 0 276.2800 334.6300
  A 26.75 23.74 90.0 0 0 252.5400 307.8800
  A 26.75 23.74 90.0 0 0 228.8000 334.6300
  A 26.75 23.74 90.0 0 0 252.5400 361.3800
  Z
  M 353.59 351.09
  Q 346.68 330.44 338.52 309.42
  Q 338.46 309.28 338.31 309.28
  L 329.96 309.36
  Q 329.72 309.36 329.81 309.59
  Q 339.73 334.47 349.60 358.83
  Q 350.14 360.17 349.70 361.68
  C 347.52 369.19 343.49 376.75 334.14 374.30
  A 0.53 0.53 0.0 0 0 333.49 374.69
  L 332.03 380.31
  Q 331.87 380.91 332.46 381.08
  Q 340.06 383.34 346.27 379.65
  C 350.39 377.19 353.90 371.90 355.42 367.70
  Q 366.08 338.30 375.79 309.47
  A 0.17 0.16 8.9 0 0 375.63 309.26
  L 367.82 309.35
  Q 367.62 309.35 367.57 309.53
  L 354.29 351.08
  Q 353.94 352.16 353.59 351.09
  Z"
/>
<path fill="#d6d577" d="
  M 103.89 335.26
  Q 106.28 331.45 109.55 327.75
  Q 113.02 323.83 115.86 320.19
  Q 119.91 315.00 124.38 309.42
  A 0.84 0.84 0.0 0 1 125.06 309.10
  L 133.65 309.11
  A 0.52 0.52 0.0 0 1 134.02 309.99
  Q 131.62 312.44 129.08 315.08
  Q 128.29 315.90 127.93 317.10
  A 0.62 0.60 75.2 0 1 127.80 317.33
  L 118.14 329.23
  A 0.97 0.97 0.0 0 0 118.09 330.39
  Q 122.10 336.18 124.68 341.04
  Q 126.95 345.30 129.89 349.45
  Q 131.54 351.79 133.10 354.39
  Q 134.60 356.89 136.35 359.32
  Q 136.85 360.00 136.00 360.00
  L 127.93 360.01
  Q 127.18 360.01 126.76 359.38
  Q 121.88 351.95 117.55 343.90
  Q 115.32 339.74 112.85 336.25
  Q 112.49 335.73 112.08 336.21
  L 103.56 346.30
  Q 103.21 346.70 103.18 347.24
  Q 102.79 353.29 103.15 359.75
  Q 103.16 359.95 102.96 359.95
  L 94.78 360.04
  Q 94.52 360.04 94.52 359.78
  L 94.57 285.81
  A 0.24 0.23 -88.9 0 1 94.81 285.57
  L 102.77 285.64
  A 0.25 0.25 0.0 0 1 103.02 285.89
  L 103.08 335.02
  Q 103.08 336.54 103.89 335.26
  Z"
/>
<path fill="#ffffff" d="
  M 252.5400 361.3800
  A 26.75 23.74 90.0 0 1 228.8000 334.6300
  A 26.75 23.74 90.0 0 1 252.5400 307.8800
  A 26.75 23.74 90.0 0 1 276.2800 334.6300
  A 26.75 23.74 90.0 0 1 252.5400 361.3800
  Z
  M 252.5700 354.3600
  A 19.74 14.89 90.0 0 0 267.4600 334.6200
  A 19.74 14.89 90.0 0 0 252.5700 314.8800
  A 19.74 14.89 90.0 0 0 237.6800 334.6200
  A 19.74 14.89 90.0 0 0 252.5700 354.3600
  Z"
/>
<path fill="#ffffff" d="
  M 353.59 351.09
  Q 353.94 352.16 354.29 351.08
  L 367.57 309.53
  Q 367.62 309.35 367.82 309.35
  L 375.63 309.26
  A 0.17 0.16 8.9 0 1 375.79 309.47
  Q 366.08 338.30 355.42 367.70
  C 353.90 371.90 350.39 377.19 346.27 379.65
  Q 340.06 383.34 332.46 381.08
  Q 331.87 380.91 332.03 380.31
  L 333.49 374.69
  A 0.53 0.53 0.0 0 1 334.14 374.30
  C 343.49 376.75 347.52 369.19 349.70 361.68
  Q 350.14 360.17 349.60 358.83
  Q 339.73 334.47 329.81 309.59
  Q 329.72 309.36 329.96 309.36
  L 338.31 309.28
  Q 338.46 309.28 338.52 309.42
  Q 346.68 330.44 353.59 351.09
  Z"
/>
<ellipse fill="#2e795c" cx="0.00" cy="0.00" transform="translate(252.57,334.62) rotate(90.0)" rx="19.74" ry="14.89"/>
</svg>
